<svg version="1.0" xmlns="http://www.w3.org/2000/svg" width="117.333" height="153.333" viewBox="0 0 88 115"><path d="M16 9v8h59V1H16v8zm12.8 21.9c-7.7 2.5-11.8 5.2-17.7 11.6-7.6 8.4-9.5 14.3-9.6 29.1 0 11.9 0 12.1 3.8 19.6 4.2 8.6 9.9 14.3 18.1 18.2 18 8.5 41.9 4 53.6-10.1 7.7-9.4 11.2-22.9 9.1-35.4-2.4-14.5-10.2-25.2-22.9-31.2-6.1-2.9-7.7-3.2-17.7-3.4-8.6-.2-12.2.1-16.7 1.6zm23.3 21.4c6.2 3.3 9.1 9.2 9.1 18.6 0 8.4-2.7 14.9-7.5 18.3-2.6 1.9-4.5 2.3-10.2 2.3-8.2 0-12.1-2.1-15.1-8.2-2.2-4.7-3-14.5-1.5-20 3.1-11.5 14.7-16.5 25.2-11z"/></svg>