<svg version="1.0" xmlns="http://www.w3.org/2000/svg" width="1320" height="226.667" viewBox="0 0 990 170"><path d="M177.4 26.3c-.3.8-.4 4.7-.2 8.8l.3 7.4h60l.3-8.8.3-8.7H208c-24.2 0-30.2.3-30.6 1.3zM263 82.5V138h26l.2-17.2.3-17.2 12.4 17.2 12.4 17.2h31.8l-2.3-2.9c-1.3-1.6-9.1-11-17.4-20.8l-15.2-18 16.5-19.9c9.1-10.9 16.9-20.5 17.5-21.2.8-.9-2.3-1.2-14.9-1.2h-15.9l-12.7 17.1-12.7 17V27h-26v55.5zm93 0V138h26l.2-17.2.3-17.2 12.4 17.2 12.4 17.2h31.8l-2.3-2.9c-1.3-1.6-9.1-11-17.4-20.8l-15.2-18 16.5-19.9c9.1-10.9 16.9-20.5 17.5-21.2.8-.9-2.3-1.2-14.9-1.2h-15.9l-12.7 17.1-12.7 17V27h-26v55.5zm456 0V138h26l.2-17.2.3-17.2 12.4 17.2 12.4 17.2h31.8l-2.3-2.9c-1.3-1.6-9.1-11-17.4-20.8l-15.2-18 16.5-19.9c9.1-10.9 16.9-20.5 17.5-21.2.8-.9-2.3-1.2-14.9-1.2h-15.9l-12.7 17.1-12.7 17V27h-26v55.5zM148.7 54.1c-5.8 1.4-9.7 3.7-14.9 8.7l-4.8 4.6V54h-26v84h25.9l.3-23.2c.3-25.3.7-27.2 6.1-31.2 2.2-1.6 4.7-2.2 11.3-2.5l8.4-.3V66.9c0-10.5-.3-13.9-1.2-13.8-.7.1-3 .5-5.1 1zm44.3.7c-21.4 5.6-33.8 25.6-30.2 48.8 3.6 23.2 21 36.5 45.7 35.1 24.6-1.3 40.5-18.1 40.5-42.7 0-30-25.9-49.1-56-41.2zm21.1 22.8c4.7 2.4 8.1 8.4 8.6 15.6.9 11.6-2.9 19.2-11.2 22.4-8.5 3.2-16.6.1-20.7-7.9-3.1-6.2-3-17.7.2-23.5 4.8-8.5 14.2-11.2 23.1-6.6zM678 54.8c-21.4 5.6-33.8 25.6-30.2 48.8 3.6 23.2 21 36.5 45.7 35.1 24.6-1.3 40.5-18.1 40.5-42.7 0-30-25.9-49.1-56-41.2zm21.1 22.8c4.7 2.4 8.1 8.4 8.6 15.6.9 11.6-2.9 19.2-11.2 22.4-8.5 3.2-16.6.1-20.7-7.9-3.1-6.2-3-17.7.2-23.5 4.8-8.5 14.2-11.2 23.1-6.6zm94.6-23.5c-5.8 1.4-9.7 3.7-14.9 8.7l-4.8 4.6V54h-26v84h25.9l.3-23.2c.3-25.3.7-27.2 6.1-31.2 2.2-1.6 4.7-2.2 11.3-2.5l8.4-.3V66.9c0-10.5-.3-13.9-1.2-13.8-.7.1-3 .5-5.1 1zm-278.7.6c0 .4 5 19.4 11.2 42l11.2 41.3h28.4l6.2-25.2c3.5-13.9 6.6-25.9 6.9-26.6.4-.7 3.6 10.7 7.1 25.3l6.4 26.5h28.5l1.1-4.3c.7-2.3 5.6-20.7 11.1-40.8 5.4-20.2 9.9-37.2 9.9-37.8 0-.7-3.9-1.1-11.9-1.1h-11.8l-5.9 29.7c-3.2 16.4-6 29.1-6.2 28.3-.2-.8-3.3-14.1-7-29.5l-6.7-28-13.6-.3-13.7-.3-3 12.8c-1.6 7.1-4.7 20.1-6.8 29-2.1 9-4 16-4.3 15.7-.3-.3-3.1-13.2-6.2-28.7l-5.5-28.2-12.7-.3c-7-.1-12.7.1-12.7.5z"/></svg>