<svg version="1.0" xmlns="http://www.w3.org/2000/svg" width="1320" height="226.667" viewBox="0 0 990 170"><path d="M178 34v8h59V26h-59v8zm86 48.5V138h25l.2-17.6.3-17.6 12.4 17.2c6.9 9.5 13 17.4 13.6 17.6.6.3 7.5.3 15.4.2l14.3-.3-17.1-20.4c-9.5-11.2-17.1-20.7-16.9-21.2.2-.4 7.5-9.4 16.3-20s16.2-19.6 16.3-20.1c.2-.4-6.3-.8-14.5-.8h-15l-12.4 16.7-12.4 16.8-.3-30.8L289 27h-25v55.5zm93 0V138h25l.2-17.6.3-17.6 12.4 17.2c6.9 9.5 13 17.4 13.6 17.6.6.3 7.5.3 15.4.2l14.3-.3-17.1-20.4c-9.5-11.2-17.1-20.7-16.9-21.2.2-.4 7.5-9.4 16.3-20s16.2-19.6 16.3-20.1c.2-.4-6.3-.8-14.5-.8h-15l-12.4 16.7-12.4 16.8-.3-30.8L382 27h-25v55.5zm456 0V138h25l.2-17.6.3-17.6 12.4 17.2c6.9 9.5 13 17.4 13.6 17.6.6.3 7.5.3 15.4.2l14.3-.3-17.1-20.4c-9.5-11.2-17.1-20.7-16.9-21.2.2-.4 7.5-9.4 16.3-20s16.2-19.6 16.3-20.1c.2-.4-6.3-.8-14.5-.8h-15l-12.4 16.7-12.4 16.8-.3-30.8L838 27h-25v55.5zM147 54.9c-4.9 1.5-9.3 4.3-13.6 8.8l-4.4 4.5V55h-25v83h25v-23.3c0-20.7.2-23.6 1.8-26.7 2.6-4.7 7.9-7.2 16.8-7.8l7.4-.5V54l-2.7.1c-1.6 0-3.9.4-5.3.8zm43.8 1c-7.7 2.5-11.8 5.2-17.7 11.6-7.6 8.4-9.5 14.3-9.6 29.1 0 11.9 0 12.1 3.8 19.6 4.2 8.6 9.9 14.3 18.1 18.2 18 8.5 41.9 4 53.6-10.1 7.7-9.4 11.2-22.9 9.1-35.4-2.4-14.5-10.2-25.2-22.9-31.2-6.1-2.9-7.7-3.2-17.7-3.4-8.6-.2-12.2.1-16.7 1.6zm23.3 21.4c6.2 3.3 9.1 9.2 9.1 18.6 0 8.4-2.7 14.9-7.5 18.3-2.6 1.9-4.5 2.3-10.2 2.3-8.2 0-12.1-2.1-15.1-8.2-2.2-4.7-3-14.5-1.5-20 3.1-11.5 14.7-16.5 25.2-11zm461.7-21.4c-7.7 2.5-11.8 5.2-17.7 11.6-7.6 8.4-9.5 14.3-9.6 29.1 0 11.9 0 12.1 3.8 19.6 4.2 8.6 9.9 14.3 18.1 18.2 18 8.5 41.9 4 53.6-10.1 7.7-9.4 11.2-22.9 9.1-35.4-2.4-14.5-10.2-25.2-22.9-31.2-6.1-2.9-7.7-3.2-17.7-3.4-8.6-.2-12.2.1-16.7 1.6zm23.3 21.4c6.2 3.3 9.1 9.2 9.1 18.6 0 8.4-2.7 14.9-7.5 18.3-2.6 1.9-4.5 2.3-10.2 2.3-8.2 0-12.1-2.1-15.1-8.2-2.2-4.7-3-14.5-1.5-20 3.1-11.5 14.7-16.5 25.2-11zM792 54.9c-4.9 1.5-9.3 4.3-13.6 8.8l-4.4 4.5V55h-25v83h25v-23.3c0-20.7.2-23.6 1.8-26.7 2.6-4.7 7.9-7.2 16.8-7.8l7.4-.5V54l-2.7.1c-1.6 0-3.9.4-5.3.8zm-274.3 9.3c1.4 5.1 6.5 23.7 11.3 41.3l8.7 32h27.7l6.5-26.2c3.6-14.4 6.9-26.4 7.2-26.8.4-.3 3.3 10 6.4 23.1 3.2 13 6.2 25.2 6.7 27.1l.9 3.4 13.7-.3 13.7-.3 8.2-30.5c4.6-16.8 9.6-35.3 11.2-41.3l2.9-10.7h-23.3l-4.9 25.1c-6.1 31.1-6.7 34.1-7.2 33.7-.2-.3-3.3-12.8-6.9-27.9-3.6-15.1-6.8-28.2-7.1-29.2-.5-1.5-2-1.7-13.8-1.7h-13.2l-6.9 29.5c-3.8 16.2-7.2 29.2-7.5 28.8-.4-.5-2.8-11.6-5.4-24.8-2.6-13.2-5.2-26.1-5.8-28.8l-1-4.7h-24.6l2.5 9.2z"/></svg>