<?xml version="1.0" standalone="no"?>
<!DOCTYPE svg PUBLIC "-//W3C//DTD SVG 20010904//EN"
 "http://www.w3.org/TR/2001/REC-SVG-20010904/DTD/svg10.dtd">
<svg version="1.0" xmlns="http://www.w3.org/2000/svg"
 width="88.000000pt" height="115.000000pt" viewBox="0 0 88.000000 115.000000"
 preserveAspectRatio="xMidYMid meet">

<g transform="translate(0.000000,115.000000) scale(0.100000,-0.100000)"
fill="#000000" stroke="none">
<path d="M160 1060 l0 -80 295 0 295 0 0 80 0 80 -295 0 -295 0 0 -80z"/>
<path d="M288 841 c-77 -25 -118 -52 -177 -116 -76 -84 -95 -143 -96 -291 0
-119 0 -121 38 -196 42 -86 99 -143 181 -182 180 -85 419 -40 536 101 77 94
112 229 91 354 -24 145 -102 252 -229 312 -61 29 -77 32 -177 34 -86 2 -122
-1 -167 -16z m233 -214 c62 -33 91 -92 91 -186 0 -84 -27 -149 -75 -183 -26
-19 -45 -23 -102 -23 -82 0 -121 21 -151 82 -22 47 -30 145 -15 200 31 115
147 165 252 110z"/>
</g>
</svg>
