<?xml version="1.0" standalone="no"?>
<!DOCTYPE svg PUBLIC "-//W3C//DTD SVG 20010904//EN"
 "http://www.w3.org/TR/2001/REC-SVG-20010904/DTD/svg10.dtd">
<svg version="1.0" xmlns="http://www.w3.org/2000/svg"
 width="990.000000pt" height="170.000000pt" viewBox="0 0 990.000000 170.000000"
 preserveAspectRatio="xMidYMid meet">

<g transform="translate(0.000000,170.000000) scale(0.100000,-0.100000)"
fill="#000000" stroke="none">
<path d="M1780 1360 l0 -80 295 0 295 0 0 80 0 80 -295 0 -295 0 0 -80z"/>
<path d="M2640 875 l0 -555 125 0 125 0 2 176 3 176 124 -172 c69 -95 130
-174 136 -176 6 -3 75 -3 154 -2 l143 3 -171 204 c-95 112 -171 207 -169 212
2 4 75 94 163 200 88 106 162 196 163 201 2 4 -63 8 -145 8 l-150 0 -124 -167
-124 -168 -3 308 -2 307 -125 0 -125 0 0 -555z"/>
<path d="M3570 875 l0 -555 125 0 125 0 2 176 3 176 124 -172 c69 -95 130
-174 136 -176 6 -3 75 -3 154 -2 l143 3 -171 204 c-95 112 -171 207 -169 212
2 4 75 94 163 200 88 106 162 196 163 201 2 4 -63 8 -145 8 l-150 0 -124 -167
-124 -168 -3 308 -2 307 -125 0 -125 0 0 -555z"/>
<path d="M8130 875 l0 -555 125 0 125 0 2 176 3 176 124 -172 c69 -95 130
-174 136 -176 6 -3 75 -3 154 -2 l143 3 -171 204 c-95 112 -171 207 -169 212
2 4 75 94 163 200 88 106 162 196 163 201 2 4 -63 8 -145 8 l-150 0 -124 -167
-124 -168 -3 308 -2 307 -125 0 -125 0 0 -555z"/>
<path d="M1470 1151 c-49 -15 -93 -43 -136 -88 l-44 -45 0 66 0 66 -125 0
-125 0 0 -415 0 -415 125 0 125 0 0 233 c0 207 2 236 18 267 26 47 79 72 168
78 l74 5 0 128 0 129 -27 -1 c-16 0 -39 -4 -53 -8z"/>
<path d="M1908 1141 c-77 -25 -118 -52 -177 -116 -76 -84 -95 -143 -96 -291 0
-119 0 -121 38 -196 42 -86 99 -143 181 -182 180 -85 419 -40 536 101 77 94
112 229 91 354 -24 145 -102 252 -229 312 -61 29 -77 32 -177 34 -86 2 -122
-1 -167 -16z m233 -214 c62 -33 91 -92 91 -186 0 -84 -27 -149 -75 -183 -26
-19 -45 -23 -102 -23 -82 0 -121 21 -151 82 -22 47 -30 145 -15 200 31 115
147 165 252 110z"/>
<path d="M6758 1141 c-77 -25 -118 -52 -177 -116 -76 -84 -95 -143 -96 -291 0
-119 0 -121 38 -196 42 -86 99 -143 181 -182 180 -85 419 -40 536 101 77 94
112 229 91 354 -24 145 -102 252 -229 312 -61 29 -77 32 -177 34 -86 2 -122
-1 -167 -16z m233 -214 c62 -33 91 -92 91 -186 0 -84 -27 -149 -75 -183 -26
-19 -45 -23 -102 -23 -82 0 -121 21 -151 82 -22 47 -30 145 -15 200 31 115
147 165 252 110z"/>
<path d="M7920 1151 c-49 -15 -93 -43 -136 -88 l-44 -45 0 66 0 66 -125 0
-125 0 0 -415 0 -415 125 0 125 0 0 233 c0 207 2 236 18 267 26 47 79 72 168
78 l74 5 0 128 0 129 -27 -1 c-16 0 -39 -4 -53 -8z"/>
<path d="M5177 1058 c14 -51 65 -237 113 -413 l87 -320 138 0 139 0 65 262
c36 144 69 264 72 268 4 3 33 -100 64 -231 32 -130 62 -252 67 -271 l9 -34
137 3 137 3 82 305 c46 168 96 353 112 413 l29 107 -116 0 -117 0 -49 -251
c-61 -311 -67 -341 -72 -337 -2 3 -33 128 -69 279 -36 151 -68 282 -71 292 -5
15 -20 17 -138 17 l-132 0 -69 -295 c-38 -162 -72 -292 -75 -288 -4 5 -28 116
-54 248 -26 132 -52 261 -58 288 l-10 47 -123 0 -123 0 25 -92z"/>
</g>
</svg>
