<?xml version="1.0" standalone="no"?>
<!DOCTYPE svg PUBLIC "-//W3C//DTD SVG 20010904//EN"
 "http://www.w3.org/TR/2001/REC-SVG-20010904/DTD/svg10.dtd">
<svg version="1.0" xmlns="http://www.w3.org/2000/svg"
 width="990.000000pt" height="170.000000pt" viewBox="0 0 990.000000 170.000000"
 preserveAspectRatio="xMidYMid meet">

<g transform="translate(0.000000,170.000000) scale(0.100000,-0.100000)"
fill="#000000" stroke="none">
<path d="M1774 1437 c-3 -8 -4 -47 -2 -88 l3 -74 300 0 300 0 3 88 3 87 -301
0 c-242 0 -302 -3 -306 -13z"/>
<path d="M2630 875 l0 -555 130 0 130 0 2 172 3 172 124 -172 124 -172 159 0
159 0 -23 29 c-13 16 -91 110 -174 208 l-152 180 165 199 c91 109 169 205 175
212 8 9 -23 12 -149 12 l-159 0 -127 -171 -127 -170 0 305 0 306 -130 0 -130
0 0 -555z"/>
<path d="M3560 875 l0 -555 130 0 130 0 2 172 3 172 124 -172 124 -172 159 0
159 0 -23 29 c-13 16 -91 110 -174 208 l-152 180 165 199 c91 109 169 205 175
212 8 9 -23 12 -149 12 l-159 0 -127 -171 -127 -170 0 305 0 306 -130 0 -130
0 0 -555z"/>
<path d="M8120 875 l0 -555 130 0 130 0 2 172 3 172 124 -172 124 -172 159 0
159 0 -23 29 c-13 16 -91 110 -174 208 l-152 180 165 199 c91 109 169 205 175
212 8 9 -23 12 -149 12 l-159 0 -127 -171 -127 -170 0 305 0 306 -130 0 -130
0 0 -555z"/>
<path d="M1487 1159 c-58 -14 -97 -37 -149 -87 l-48 -46 0 67 0 67 -130 0
-130 0 0 -420 0 -420 129 0 130 0 3 232 c3 253 7 272 61 312 22 16 47 22 113
25 l84 3 0 139 c0 105 -3 139 -12 138 -7 -1 -30 -5 -51 -10z"/>
<path d="M1930 1152 c-214 -56 -338 -256 -302 -488 36 -232 210 -365 457 -351
246 13 405 181 405 427 0 300 -259 491 -560 412z m211 -228 c47 -24 81 -84 86
-156 9 -116 -29 -192 -112 -224 -85 -32 -166 -1 -207 79 -31 62 -30 177 2 235
48 85 142 112 231 66z"/>
<path d="M6780 1152 c-214 -56 -338 -256 -302 -488 36 -232 210 -365 457 -351
246 13 405 181 405 427 0 300 -259 491 -560 412z m211 -228 c47 -24 81 -84 86
-156 9 -116 -29 -192 -112 -224 -85 -32 -166 -1 -207 79 -31 62 -30 177 2 235
48 85 142 112 231 66z"/>
<path d="M7937 1159 c-58 -14 -97 -37 -149 -87 l-48 -46 0 67 0 67 -130 0
-130 0 0 -420 0 -420 129 0 130 0 3 232 c3 253 7 272 61 312 22 16 47 22 113
25 l84 3 0 139 c0 105 -3 139 -12 138 -7 -1 -30 -5 -51 -10z"/>
<path d="M5150 1153 c0 -4 50 -194 112 -420 l112 -413 142 0 142 0 62 252 c35
139 66 259 69 266 4 7 36 -107 71 -253 l64 -265 142 0 143 0 11 43 c7 23 56
207 111 408 54 202 99 372 99 378 0 7 -39 11 -119 11 l-118 0 -59 -297 c-32
-164 -60 -291 -62 -283 -2 8 -33 141 -70 295 l-67 280 -136 3 -137 3 -30 -128
c-16 -71 -47 -201 -68 -290 -21 -90 -40 -160 -43 -157 -3 3 -31 132 -62 287
l-55 282 -127 3 c-70 1 -127 -1 -127 -5z"/>
</g>
</svg>
