<?xml version="1.0" standalone="no"?>
<!DOCTYPE svg PUBLIC "-//W3C//DTD SVG 20010904//EN"
 "http://www.w3.org/TR/2001/REC-SVG-20010904/DTD/svg10.dtd">
<svg version="1.0" xmlns="http://www.w3.org/2000/svg"
 width="100.000000pt" height="100.000000pt" viewBox="0 0 100.000000 100.000000"
 preserveAspectRatio="xMidYMid meet">

<g transform="translate(0.000000,100.000000) scale(0.100000,-0.100000)"
fill="#000000" stroke="none">
<path d="M168 871 l-33 -29 -3 -146 c-3 -110 -7 -148 -18 -157 -18 -15 -18
-63 0 -78 11 -9 15 -47 18 -157 l3 -146 33 -29 c24 -22 42 -29 72 -29 39 0 40
1 40 34 0 33 -2 35 -37 38 l-38 3 -7 150 c-4 83 -7 161 -7 175 0 14 3 93 7
175 l7 150 38 3 c35 3 37 5 37 38 0 33 -1 34 -40 34 -30 0 -48 -7 -72 -29z"/>
<path d="M720 866 c0 -33 2 -35 38 -38 l37 -3 7 -150 c9 -188 9 -163 0 -345
l-7 -155 -37 -3 c-36 -3 -38 -5 -38 -38 0 -33 1 -34 40 -34 30 0 48 7 72 29
l33 29 3 146 c3 110 7 148 18 157 8 6 14 24 14 39 0 15 -6 33 -14 39 -11 9
-15 47 -18 157 l-3 146 -33 29 c-24 22 -42 29 -72 29 -39 0 -40 -1 -40 -34z"/>
<path d="M472 851 c-12 -21 -22 -41 -22 -45 0 -3 23 -6 50 -6 28 0 50 3 50 6
0 11 -43 84 -50 84 -3 0 -16 -17 -28 -39z"/>
<path d="M367 661 l-37 -68 0 -230 0 -230 48 -14 c26 -8 81 -14 122 -14 41 0
96 6 123 14 l47 14 0 230 0 230 -37 68 -37 69 -96 0 -96 0 -37 -69z m210 -36
c28 -50 21 -55 -74 -55 -99 0 -107 4 -87 43 28 54 34 58 88 55 47 -3 52 -5 73
-43z m-119 -125 c9 0 12 -40 12 -165 0 -156 -1 -165 -19 -165 -51 0 -51 1 -51
177 l0 165 23 -6 c12 -3 28 -6 35 -6z m142 -154 c0 -161 0 -164 -22 -170 -49
-13 -48 -15 -48 158 0 180 -4 168 58 175 9 1 12 -38 12 -163z"/>
</g>
</svg>
